<svg width="36" height="36" viewBox="0 0 36 36" fill="none" xmlns="http://www.w3.org/2000/svg">
<path d="M27.4969 14.2954C26.809 14.5152 26.0761 14.6609 25.3119 14.7317C26.0981 14.3897 26.6981 13.8523 26.9801 13.2046C26.2472 13.5229 25.438 13.7478 24.5755 13.8734C23.8796 13.3334 22.8877 12.999 21.8056 12.999C19.7062 12.999 18.0161 14.2406 18.0161 15.7627C18.0161 15.9817 18.0415 16.1923 18.1039 16.3927C14.9514 16.2807 12.1618 15.1798 10.2878 13.5027C9.96068 13.9163 9.76878 14.3897 9.76878 14.8993C9.76878 15.8562 10.4451 16.7044 11.4531 17.1955C10.8439 17.1871 10.2462 17.0582 9.73988 16.8552C9.73988 16.8636 9.73988 16.8746 9.73988 16.8855C9.73988 18.2282 11.0543 19.3434 12.778 19.6003C12.4693 19.6618 12.1329 19.6913 11.7838 19.6913C11.541 19.6913 11.2959 19.6812 11.0659 19.6441C11.5572 20.7383 12.9514 21.5427 14.6092 21.5688C13.319 22.3042 11.6809 22.7472 9.9075 22.7472C9.59652 22.7472 9.29826 22.7371 9 22.7093C10.6797 23.4986 12.6705 23.9492 14.8173 23.9492C21.7952 23.9492 25.6102 19.7376 25.6102 16.087C25.6102 15.9648 25.6044 15.8469 25.5963 15.7298C26.3489 15.3407 26.9813 14.8547 27.4969 14.2954Z" fill="white"/>
<circle cx="18" cy="17.999" r="17" stroke="white" stroke-width="2"/>
</svg>
