<svg width="96" height="96" viewBox="0 0 96 96" fill="none" xmlns="http://www.w3.org/2000/svg">
<circle cx="48" cy="48" r="48" fill="#277CFB"/>
<g clip-path="url(#clip0_1_404)">
<path d="M68.8083 48.6218C68.6152 48.2266 68.6152 47.7734 68.8083 47.3784L70.5986 43.716C71.5953 41.6769 70.8056 39.2464 68.8007 38.1827L65.1997 36.272C64.8112 36.066 64.5449 35.6992 64.4689 35.2662L63.7646 31.251C63.3725 29.0155 61.3045 27.5132 59.0577 27.8311L55.0215 28.4021C54.5858 28.4636 54.155 28.3235 53.839 28.0178L50.9092 25.1835C49.2779 23.6054 46.7223 23.6053 45.091 25.1835L42.1612 28.0181C41.8451 28.3239 41.4143 28.4637 40.9787 28.4023L36.9425 27.8314C34.6949 27.5133 32.6277 29.0157 32.2356 31.2513L31.5313 35.2663C31.4553 35.6994 31.1889 36.0661 30.8005 36.2722L27.1996 38.1828C25.1947 39.2465 24.4049 41.6772 25.4017 43.7163L27.1918 47.3785C27.385 47.7737 27.385 48.2269 27.1918 48.6219L25.4016 52.2842C24.4049 54.3233 25.1946 56.7538 27.1995 57.8175L30.8004 59.7282C31.1889 59.9342 31.4553 60.301 31.5313 60.734L32.2356 64.7492C32.5926 66.7843 34.3376 68.2116 36.3432 68.2114C36.5407 68.2114 36.7412 68.1975 36.9426 68.169L40.9788 67.5981C41.4141 67.5363 41.8452 67.6766 42.1613 67.9823L45.091 70.8166C45.9069 71.6058 46.9533 72.0003 48.0001 72.0002C49.0466 72.0001 50.0937 71.6056 50.9091 70.8166L53.839 67.9823C54.1551 67.6766 54.586 67.5369 55.0215 67.5981L59.0577 68.169C61.3056 68.487 63.3725 66.9847 63.7646 64.7491L64.469 60.7341C64.545 60.301 64.8113 59.9343 65.1997 59.7282L68.8007 57.8175C70.8056 56.7539 71.5953 54.3232 70.5986 52.2841L68.8083 48.6218ZM67.5031 55.3719L63.9022 57.2825C62.7541 57.8918 61.9667 58.9754 61.7422 60.2556L61.0379 64.2707C60.9053 65.0271 60.206 65.5351 59.4454 65.4278L55.4092 64.8568C54.122 64.6745 52.8483 65.0888 51.9141 65.9924L48.9843 68.8265C48.4325 69.3604 47.5678 69.3604 47.0158 68.8265L44.0861 65.9923C43.2965 65.2285 42.2643 64.8146 41.1868 64.8146C40.9893 64.8146 40.7903 64.8285 40.591 64.8567L36.5548 65.4277C35.7948 65.5351 35.095 65.027 34.9623 64.2706L34.2579 60.2554C34.0333 58.9752 33.246 57.8915 32.0978 57.2824L28.4969 55.3718C27.8186 55.0119 27.5514 54.1896 27.8886 53.4997L29.6788 49.8374C30.2496 48.6697 30.2496 47.3304 29.6788 46.1626L27.8886 42.5003C27.5514 41.8104 27.8186 40.9881 28.4969 40.6282L32.0978 38.7176C33.2459 38.1083 34.0333 37.0248 34.2578 35.7445L34.9621 31.7294C35.0948 30.973 35.794 30.4649 36.5546 30.5724L40.5908 31.1433C41.8775 31.3254 43.1516 30.9114 44.0859 30.0077L47.0157 27.1735C47.5675 26.6397 48.4322 26.6397 48.9842 27.1735L51.9139 30.0077C52.8482 30.9115 54.1221 31.3254 55.409 31.1433L59.4452 30.5724C60.2052 30.4648 60.9051 30.973 61.0377 31.7294L61.742 35.7446C61.9666 37.0249 62.7539 38.1085 63.9021 38.7176L67.503 40.6282C68.1813 40.9881 68.4485 41.8104 68.1113 42.5003L66.3211 46.1625C65.7503 47.3302 65.7503 48.6697 66.3211 49.8373L68.1113 53.4995C68.4486 54.1896 68.1814 55.012 67.5031 55.3719Z" fill="white"/>
<path d="M58.1144 37.8858C57.5739 37.3452 56.6974 37.3452 56.1568 37.8858L37.8861 56.1566C37.3455 56.6972 37.3455 57.5736 37.8861 58.1142C38.1564 58.3845 38.5106 58.5196 38.8648 58.5196C39.219 58.5196 39.5734 58.3846 39.8436 58.1142L58.1143 39.8434C58.6551 39.3028 58.655 38.4264 58.1144 37.8858Z" fill="white"/>
<path d="M42.4634 35.5421C39.6648 35.5421 37.3879 37.819 37.3879 40.6176C37.3879 43.4162 39.6648 45.6931 42.4634 45.6931C45.262 45.6931 47.5389 43.4162 47.5389 40.6176C47.5389 37.819 45.262 35.5421 42.4634 35.5421ZM42.4634 42.9246C41.1914 42.9246 40.1565 41.8897 40.1565 40.6175C40.1565 39.3454 41.1914 38.3105 42.4634 38.3105C43.7355 38.3105 44.7705 39.3454 44.7705 40.6175C44.7704 41.8897 43.7355 42.9246 42.4634 42.9246Z" fill="white"/>
<path d="M53.5367 50.307C50.7381 50.307 48.4612 52.5839 48.4612 55.3825C48.4612 58.1811 50.7381 60.458 53.5367 60.458C56.3354 60.458 58.6123 58.1811 58.6123 55.3825C58.6123 52.5839 56.3354 50.307 53.5367 50.307ZM53.5367 57.6895C52.2647 57.6895 51.2297 56.6546 51.2297 55.3825C51.2297 54.1104 52.2646 53.0755 53.5367 53.0755C54.8088 53.0755 55.8437 54.1104 55.8437 55.3825C55.8437 56.6546 54.8088 57.6895 53.5367 57.6895Z" fill="white"/>
</g>
<defs>
<clipPath id="clip0_1_404">
<rect width="48" height="48" fill="white" transform="translate(24 24)"/>
</clipPath>
</defs>
</svg>
