<svg width="21" height="22" viewBox="0 0 21 22" fill="none" xmlns="http://www.w3.org/2000/svg">
<path d="M16.7822 13.6629C16.5218 13.9348 16.4022 14.3281 16.4615 14.7137L17.3553 20.0437C17.4307 20.4955 17.2538 20.9527 16.9029 21.2137C16.559 21.4846 16.1016 21.5171 15.7265 21.3004L11.2735 18.7979C11.1186 18.7091 10.9467 18.6614 10.7707 18.656H10.4983C10.4038 18.6712 10.3113 18.7037 10.2268 18.7535L5.77273 21.2679C5.55254 21.3871 5.3032 21.4293 5.05888 21.3871C4.46366 21.2657 4.06651 20.6547 4.16404 20.0102L5.05888 14.6802C5.1182 14.2912 4.99855 13.8958 4.73814 13.6196L1.10752 9.82791C0.803877 9.51049 0.698307 9.03383 0.837057 8.60374C0.971785 8.17474 1.31564 7.86166 1.73089 7.79124L6.7279 7.01016C7.10795 6.96791 7.44176 6.71874 7.61268 6.35041L9.81458 1.48624C9.86686 1.37791 9.93423 1.27824 10.0157 1.19374L10.1062 1.11791C10.1534 1.06158 10.2077 1.01499 10.268 0.977077L10.3776 0.933743L10.5485 0.85791H10.9718C11.3499 0.90016 11.6827 1.14391 11.8566 1.50791L14.0877 6.35041C14.2485 6.70466 14.5612 6.95058 14.9222 7.01016L19.9192 7.79124C20.3415 7.85624 20.6944 8.17041 20.8341 8.60374C20.9659 9.03816 20.8522 9.51483 20.5426 9.82791L16.7822 13.6629Z" fill="#FFBD00"/>
</svg>
